<svg id="svg" version="1.1" xmlns="http://www.w3.org/2000/svg" xmlns:xlink="http://www.w3.org/1999/xlink" width="400" height="400" viewBox="0, 0, 400,400"><g id="svgg"><path id="path0" d="M194.119 103.218 C 120.147 107.446,78.120 190.698,118.556 252.900 C 159.383 315.703,253.779 309.980,286.795 242.700 C 319.423 176.211,268.114 98.989,194.119 103.218 M207.422 115.900 C 213.852 116.526,224.952 118.884,225.591 119.759 C 225.651 119.841,226.330 120.122,227.100 120.384 C 229.827 121.313,232.756 122.528,238.400 125.069 C 246.339 128.643,258.330 138.456,265.168 146.974 C 272.996 156.726,278.973 169.189,281.677 181.400 C 292.737 231.332,257.054 279.597,206.121 283.597 C 163.315 286.960,124.669 257.214,116.906 214.930 C 114.917 204.093,115.230 190.972,117.731 180.400 C 119.737 171.925,123.916 161.992,128.587 154.600 C 134.986 144.472,143.982 135.404,154.076 128.907 C 156.699 127.219,160.914 124.829,161.548 124.671 C 161.851 124.595,162.865 124.180,163.800 123.748 C 166.096 122.686,169.450 121.312,171.562 120.568 C 172.518 120.231,173.348 119.879,173.407 119.785 C 173.661 119.383,180.997 117.485,185.000 116.787 C 191.615 115.633,200.909 115.265,207.422 115.900 " stroke="none" fill="#f3efe3" fill-rule="evenodd"></path><path id="path1" d="M194.364 116.012 C 188.984 116.336,182.941 117.334,177.600 118.781 C 173.664 119.848,173.532 119.904,173.672 120.453 C 173.768 120.831,196.857 191.637,198.304 195.990 C 198.576 196.809,198.722 197.394,198.629 197.290 C 198.535 197.185,191.189 182.745,182.305 165.200 C 173.420 147.655,165.165 131.384,163.959 129.043 L 161.767 124.786 160.033 125.726 C 148.388 132.043,138.568 140.726,131.004 151.395 C 128.567 154.831,124.782 161.248,125.039 161.506 C 125.103 161.570,141.664 170.010,161.840 180.261 C 182.016 190.513,198.743 199.058,199.012 199.250 L 199.500 199.600 198.741 199.476 C 198.324 199.408,180.517 193.650,159.171 186.680 C 137.825 179.711,120.215 173.984,120.039 173.954 C 119.364 173.840,117.225 182.559,116.420 188.700 C 114.846 200.720,115.993 214.295,119.457 224.621 L 119.900 225.942 158.099 213.471 C 179.109 206.612,196.381 201.027,196.482 201.061 C 196.695 201.132,199.313 199.793,157.700 220.895 C 139.770 229.988,125.027 237.498,124.938 237.585 C 124.849 237.672,125.018 238.184,125.312 238.722 C 125.607 239.260,126.120 240.195,126.451 240.800 C 133.775 254.160,145.995 266.199,159.819 273.673 L 161.531 274.599 180.216 237.820 C 190.492 217.592,198.926 201.066,198.958 201.096 C 198.990 201.125,193.298 218.662,186.308 240.066 C 179.319 261.470,173.600 279.113,173.600 279.273 C 173.600 279.570,175.230 280.144,178.500 280.998 C 191.507 284.397,207.017 284.440,220.000 281.114 C 224.366 279.996,225.295 279.690,225.360 279.354 C 225.404 279.131,207.461 223.800,199.899 200.836 C 199.738 200.345,199.701 200.000,199.814 200.038 C 199.924 200.075,208.479 216.799,218.825 237.202 C 229.171 257.606,237.671 274.336,237.714 274.380 C 237.919 274.587,243.284 271.491,246.500 269.309 C 255.801 262.998,263.365 255.346,269.740 245.800 C 271.654 242.933,274.400 238.126,274.400 237.640 C 274.400 237.543,258.298 229.282,238.619 219.282 C 218.939 209.282,202.853 201.083,202.873 201.063 C 202.898 201.036,276.262 224.965,279.019 225.899 C 279.385 226.023,279.958 224.393,280.986 220.300 C 284.596 205.927,284.347 190.689,280.270 176.500 C 279.891 175.180,279.517 174.039,279.440 173.963 C 279.363 173.888,261.975 179.491,240.800 186.414 C 202.615 198.900,199.350 199.950,199.712 199.630 C 199.816 199.538,216.640 190.981,237.100 180.614 C 257.560 170.246,274.333 161.731,274.373 161.692 C 274.413 161.653,273.882 160.603,273.192 159.360 C 265.370 145.261,254.034 133.971,239.769 126.073 C 237.880 125.027,237.715 124.972,237.476 125.299 C 237.334 125.493,229.119 141.593,219.221 161.076 C 200.259 198.398,199.902 199.088,200.098 198.080 C 200.164 197.739,205.884 180.106,212.809 158.897 C 219.734 137.687,225.400 120.225,225.400 120.093 C 225.400 119.737,220.738 118.424,216.159 117.492 C 209.316 116.098,201.618 115.575,194.364 116.012 " stroke="none" fill="#60d434" fill-rule="evenodd"></path><path id="path2" d="M192.600 96.929 C 177.785 98.253,166.434 101.325,154.300 107.294 C 113.237 127.494,90.533 172.066,98.215 217.400 C 107.016 269.339,154.893 306.723,207.351 302.617 C 268.390 297.839,311.547 242.575,301.388 182.200 C 294.218 139.591,260.094 105.468,217.397 98.213 C 210.750 97.084,198.163 96.432,192.600 96.929 M207.300 103.203 C 266.087 108.015,306.987 162.915,294.691 220.506 C 283.892 271.083,234.511 304.438,183.400 295.680 C 131.628 286.808,96.289 238.253,103.717 186.200 C 110.922 135.720,156.675 99.059,207.300 103.203 " stroke="none" fill="#30ac48" fill-rule="evenodd"></path><path id="path3" d="M170.900 120.887 C 167.374 122.209,161.889 124.674,161.934 124.917 C 161.985 125.188,198.429 197.067,198.629 197.290 C 198.723 197.394,198.576 196.809,198.304 195.990 C 193.076 180.259,173.620 120.235,173.691 120.052 C 173.744 119.913,173.768 119.808,173.744 119.819 C 173.720 119.829,172.440 120.310,170.900 120.887 M225.400 120.092 C 225.400 120.225,219.734 137.687,212.809 158.897 C 199.593 199.375,199.590 199.384,200.600 197.600 C 201.088 196.739,237.331 125.537,237.556 124.998 C 237.657 124.757,231.446 122.034,227.750 120.698 C 226.243 120.154,225.400 119.936,225.400 120.092 M124.591 161.981 C 122.169 167.115,119.641 173.536,119.939 173.800 C 120.168 174.005,197.954 199.343,198.800 199.489 L 199.500 199.610 199.013 199.256 C 198.618 198.969,173.700 186.270,129.968 164.068 L 124.836 161.463 124.591 161.981 M236.942 180.689 C 216.505 191.062,199.730 199.604,199.663 199.670 C 199.597 199.736,200.163 199.613,200.922 199.396 C 202.844 198.847,279.185 173.881,279.303 173.763 C 279.660 173.407,274.809 161.782,274.317 161.814 C 274.198 161.822,257.379 170.315,236.942 180.689 M199.899 200.836 C 208.569 227.163,225.404 279.163,225.339 279.413 C 225.259 279.716,225.447 279.691,226.874 279.205 C 230.684 277.907,238.177 274.633,237.829 274.418 C 237.723 274.353,229.171 257.605,218.825 237.202 C 208.479 216.798,199.924 200.075,199.814 200.038 C 199.701 200.000,199.738 200.345,199.899 200.836 M158.200 213.416 C 137.355 220.228,120.188 225.843,120.051 225.894 C 119.659 226.040,121.136 230.014,123.627 235.519 L 124.630 237.737 128.165 235.897 C 130.109 234.885,146.055 226.783,163.600 217.893 C 195.808 201.573,196.941 200.990,196.400 201.016 C 196.235 201.024,179.045 206.604,158.200 213.416 M183.900 230.560 C 162.185 273.295,161.529 274.596,161.644 274.711 C 162.087 275.154,172.866 279.600,173.497 279.600 C 173.554 279.600,173.600 279.461,173.600 279.291 C 173.600 279.121,179.319 261.470,186.308 240.066 C 193.298 218.662,198.990 201.125,198.958 201.095 C 198.926 201.064,192.150 214.324,183.900 230.560 M204.800 202.068 C 205.955 202.666,222.060 210.862,240.590 220.280 C 259.119 229.699,274.337 237.498,274.407 237.611 C 274.612 237.943,277.662 230.999,278.910 227.358 L 279.371 226.016 274.535 224.422 C 269.184 222.657,203.577 201.237,203.039 201.079 C 202.852 201.025,203.645 201.469,204.800 202.068 M115.646 202.600 C 115.646 202.985,115.688 203.143,115.738 202.950 C 115.788 202.758,115.788 202.442,115.738 202.250 C 115.688 202.058,115.646 202.215,115.646 202.600 M130.000 246.800 C 130.235 247.130,130.472 247.400,130.527 247.400 C 130.582 247.400,130.435 247.130,130.200 246.800 C 129.965 246.470,129.728 246.200,129.673 246.200 C 129.618 246.200,129.765 246.470,130.000 246.800 M131.400 248.800 C 131.635 249.130,131.872 249.400,131.927 249.400 C 131.982 249.400,131.835 249.130,131.600 248.800 C 131.365 248.470,131.128 248.200,131.073 248.200 C 131.018 248.200,131.165 248.470,131.400 248.800 M133.177 251.150 C 133.839 252.003,134.664 253.015,135.012 253.400 C 135.611 254.064,135.608 254.053,134.957 253.200 C 133.267 250.984,132.156 249.600,132.069 249.600 C 132.017 249.600,132.516 250.298,133.177 251.150 M260.492 257.450 L 259.500 258.500 260.550 257.508 C 261.526 256.585,261.692 256.400,261.542 256.400 C 261.511 256.400,261.038 256.873,260.492 257.450 M257.000 260.900 C 256.514 261.395,256.162 261.800,256.217 261.800 C 256.272 261.800,256.714 261.395,257.200 260.900 C 257.686 260.405,258.038 260.000,257.983 260.000 C 257.928 260.000,257.486 260.405,257.000 260.900 M191.250 283.338 C 191.442 283.388,191.758 283.388,191.950 283.338 C 192.143 283.288,191.985 283.246,191.600 283.246 C 191.215 283.246,191.058 283.288,191.250 283.338 M207.250 283.338 C 207.443 283.388,207.757 283.388,207.950 283.338 C 208.143 283.288,207.985 283.246,207.600 283.246 C 207.215 283.246,207.058 283.288,207.250 283.338 M198.350 283.748 C 199.038 283.787,200.163 283.787,200.850 283.748 C 201.538 283.709,200.975 283.677,199.600 283.677 C 198.225 283.677,197.663 283.709,198.350 283.748 " stroke="none" fill="#7ff344" fill-rule="evenodd"></path><path id="path4" d="M195.050 103.138 C 195.243 103.188,195.558 103.188,195.750 103.138 C 195.942 103.088,195.785 103.046,195.400 103.046 C 195.015 103.046,194.858 103.088,195.050 103.138 M203.850 103.138 C 204.043 103.188,204.358 103.188,204.550 103.138 C 204.743 103.088,204.585 103.046,204.200 103.046 C 203.815 103.046,203.658 103.088,203.850 103.138 M102.846 195.800 C 102.846 196.185,102.888 196.343,102.938 196.150 C 102.988 195.958,102.988 195.643,102.938 195.450 C 102.888 195.258,102.846 195.415,102.846 195.800 M296.650 196.300 C 296.653 196.740,296.694 196.896,296.741 196.648 C 296.789 196.399,296.787 196.039,296.737 195.848 C 296.687 195.656,296.648 195.860,296.650 196.300 M296.650 203.700 C 296.653 204.140,296.694 204.296,296.741 204.048 C 296.789 203.799,296.787 203.439,296.737 203.248 C 296.687 203.056,296.648 203.260,296.650 203.700 M102.846 204.200 C 102.846 204.585,102.888 204.743,102.938 204.550 C 102.988 204.358,102.988 204.043,102.938 203.850 C 102.888 203.658,102.846 203.815,102.846 204.200 M195.750 296.941 C 195.998 296.989,196.403 296.989,196.650 296.941 C 196.898 296.893,196.695 296.854,196.200 296.854 C 195.705 296.854,195.503 296.893,195.750 296.941 M202.950 296.941 C 203.197 296.989,203.603 296.989,203.850 296.941 C 204.097 296.893,203.895 296.854,203.400 296.854 C 202.905 296.854,202.703 296.893,202.950 296.941 " stroke="none" fill="#9ed29d" fill-rule="evenodd"></path><path id="path5" d="M194.653 115.944 C 194.957 115.989,195.407 115.988,195.653 115.941 C 195.899 115.893,195.650 115.856,195.100 115.857 C 194.550 115.859,194.349 115.898,194.653 115.944 M203.550 115.941 C 203.798 115.989,204.203 115.989,204.450 115.941 C 204.697 115.893,204.495 115.854,204.000 115.854 C 203.505 115.854,203.303 115.893,203.550 115.941 M140.096 140.450 L 138.100 142.500 140.150 140.504 C 141.278 139.406,142.200 138.483,142.200 138.454 C 142.200 138.309,141.950 138.546,140.096 140.450 M258.900 140.400 C 259.885 141.390,260.737 142.200,260.792 142.200 C 260.847 142.200,260.085 141.390,259.100 140.400 C 258.115 139.410,257.263 138.600,257.208 138.600 C 257.153 138.600,257.915 139.410,258.900 140.400 M115.646 195.800 C 115.646 196.185,115.688 196.343,115.738 196.150 C 115.788 195.958,115.788 195.643,115.738 195.450 C 115.688 195.258,115.646 195.415,115.646 195.800 M283.454 196.000 C 283.454 196.495,283.493 196.697,283.541 196.450 C 283.589 196.203,283.589 195.798,283.541 195.550 C 283.493 195.303,283.454 195.505,283.454 196.000 M283.450 203.500 C 283.453 203.940,283.494 204.096,283.541 203.848 C 283.589 203.599,283.587 203.239,283.537 203.048 C 283.487 202.856,283.448 203.060,283.450 203.500 M115.646 203.800 C 115.646 204.185,115.688 204.343,115.738 204.150 C 115.788 203.958,115.788 203.643,115.738 203.450 C 115.688 203.258,115.646 203.415,115.646 203.800 M196.250 283.738 C 196.442 283.788,196.758 283.788,196.950 283.738 C 197.143 283.688,196.985 283.646,196.600 283.646 C 196.215 283.646,196.058 283.688,196.250 283.738 M202.250 283.738 C 202.442 283.788,202.758 283.788,202.950 283.738 C 203.143 283.688,202.985 283.646,202.600 283.646 C 202.215 283.646,202.058 283.688,202.250 283.738 " stroke="none" fill="#99e477" fill-rule="evenodd"></path><path id="path6" d="M131.096 131.450 L 129.300 133.300 131.150 131.504 C 132.167 130.516,133.000 129.684,133.000 129.654 C 133.000 129.509,132.764 129.732,131.096 131.450 M267.300 130.400 C 267.730 130.840,268.126 131.200,268.181 131.200 C 268.236 131.200,267.930 130.840,267.500 130.400 C 267.070 129.960,266.674 129.600,266.619 129.600 C 266.564 129.600,266.870 129.960,267.300 130.400 M269.192 132.250 C 270.020 133.133,270.200 133.292,270.200 133.142 C 270.200 133.110,269.772 132.682,269.250 132.192 L 268.300 131.300 269.192 132.250 M131.100 268.600 C 131.753 269.260,132.332 269.800,132.387 269.800 C 132.442 269.800,131.953 269.260,131.300 268.600 C 130.647 267.940,130.068 267.400,130.013 267.400 C 129.958 267.400,130.447 267.940,131.100 268.600 M268.294 268.650 L 267.100 269.900 268.350 268.706 C 269.511 267.597,269.692 267.400,269.544 267.400 C 269.513 267.400,268.950 267.963,268.294 268.650 " stroke="none" fill="#6fc477" fill-rule="evenodd"></path><path id="path7" d="M128.800 266.263 C 128.800 266.297,129.093 266.590,129.450 266.913 L 130.100 267.500 129.513 266.850 C 128.965 266.244,128.800 266.108,128.800 266.263 M270.087 266.850 L 269.500 267.500 270.150 266.913 C 270.756 266.365,270.892 266.200,270.737 266.200 C 270.703 266.200,270.410 266.493,270.087 266.850 M266.487 270.450 L 265.900 271.100 266.550 270.513 C 267.156 269.965,267.292 269.800,267.137 269.800 C 267.103 269.800,266.810 270.093,266.487 270.450 " stroke="none" fill="#52b062" fill-rule="evenodd"></path><path id="path8" d="M192.900 115.784 C 192.240 115.848,195.255 115.900,199.600 115.900 C 203.945 115.900,206.915 115.843,206.200 115.773 C 204.593 115.617,194.540 115.625,192.900 115.784 M189.400 116.130 C 189.125 116.172,187.885 116.352,186.644 116.530 C 185.403 116.708,184.431 116.898,184.485 116.952 C 184.576 117.042,188.060 116.588,190.200 116.207 C 191.125 116.043,190.422 115.975,189.400 116.130 M208.700 116.185 C 209.825 116.414,212.488 116.616,211.634 116.407 C 211.268 116.317,210.278 116.194,209.434 116.133 C 208.385 116.057,208.153 116.074,208.700 116.185 M213.100 116.811 C 214.168 117.032,214.902 117.025,214.200 116.800 C 213.925 116.712,213.385 116.641,213.000 116.643 L 212.300 116.646 213.100 116.811 M183.100 117.103 C 182.990 117.142,182.198 117.325,181.339 117.510 C 180.481 117.694,179.813 117.880,179.856 117.923 C 179.928 117.995,183.655 117.280,184.100 117.109 C 184.352 117.012,183.371 117.006,183.100 117.103 M215.400 117.200 C 215.675 117.288,216.125 117.358,216.400 117.356 C 216.849 117.353,216.839 117.337,216.300 117.200 C 215.454 116.985,214.728 116.985,215.400 117.200 M217.300 117.582 C 217.520 117.674,218.105 117.806,218.600 117.875 C 219.169 117.955,219.353 117.939,219.100 117.830 C 218.880 117.736,218.295 117.604,217.800 117.537 C 217.244 117.461,217.053 117.479,217.300 117.582 M178.500 118.200 L 178.100 118.372 178.500 118.372 C 178.720 118.372,179.080 118.295,179.300 118.200 L 179.700 118.028 179.300 118.028 C 179.080 118.028,178.720 118.105,178.500 118.200 M219.900 118.200 C 220.120 118.295,220.480 118.372,220.700 118.372 L 221.100 118.372 220.700 118.200 C 220.480 118.105,220.120 118.028,219.900 118.028 L 219.500 118.028 219.900 118.200 M175.445 119.040 C 174.314 119.379,173.425 119.692,173.469 119.736 C 173.547 119.813,177.815 118.618,177.983 118.472 C 178.203 118.281,177.316 118.480,175.445 119.040 M222.600 118.895 C 223.425 119.169,224.190 119.363,224.300 119.327 C 224.410 119.291,224.005 119.119,223.400 118.944 C 221.532 118.403,221.019 118.372,222.600 118.895 M160.900 124.915 C 158.994 125.908,157.387 126.854,157.469 126.935 C 157.520 126.987,157.908 126.813,158.331 126.549 C 158.754 126.285,159.765 125.738,160.577 125.334 C 161.389 124.930,161.929 124.601,161.777 124.601 C 161.625 124.602,161.230 124.743,160.900 124.915 M239.400 125.692 C 239.400 125.747,239.760 125.976,240.200 126.200 C 240.640 126.424,241.000 126.563,241.000 126.508 C 241.000 126.453,240.640 126.224,240.200 126.000 C 239.760 125.776,239.400 125.637,239.400 125.692 M154.736 128.497 C 146.468 133.728,138.206 141.272,132.937 148.400 C 131.900 149.803,132.226 149.430,135.288 145.713 C 140.465 139.428,148.176 132.737,155.350 128.303 C 156.938 127.321,157.386 126.997,157.150 127.001 C 157.123 127.001,156.036 127.674,154.736 128.497 M242.200 127.290 C 242.200 127.345,242.470 127.529,242.800 127.700 C 243.130 127.871,243.400 127.965,243.400 127.910 C 243.400 127.855,243.130 127.671,242.800 127.500 C 242.470 127.329,242.200 127.235,242.200 127.290 M243.987 128.362 C 244.255 128.579,244.750 128.909,245.087 129.095 L 245.700 129.433 245.213 129.038 C 244.945 128.821,244.450 128.491,244.113 128.305 L 243.500 127.967 243.987 128.362 M245.800 129.485 C 245.800 129.540,246.340 129.952,247.000 130.400 C 247.660 130.848,248.200 131.170,248.200 131.115 C 248.200 131.060,247.660 130.648,247.000 130.200 C 246.340 129.752,245.800 129.430,245.800 129.485 M248.400 131.263 C 248.400 131.312,248.730 131.605,249.134 131.913 C 249.538 132.221,249.805 132.370,249.728 132.246 C 249.570 131.990,248.400 131.124,248.400 131.263 M250.800 133.053 C 250.800 133.097,251.183 133.437,251.650 133.809 C 252.118 134.180,252.373 134.326,252.218 134.133 C 251.925 133.769,250.800 132.912,250.800 133.053 M253.800 135.463 C 253.800 135.497,254.093 135.790,254.450 136.113 L 255.100 136.700 254.513 136.050 C 253.965 135.444,253.800 135.308,253.800 135.463 M256.192 137.650 C 256.682 138.172,257.110 138.600,257.142 138.600 C 257.292 138.600,257.133 138.420,256.250 137.592 L 255.300 136.700 256.192 137.650 M259.000 140.300 C 259.597 140.905,260.131 141.400,260.186 141.400 C 260.241 141.400,259.797 140.905,259.200 140.300 C 258.603 139.695,258.069 139.200,258.014 139.200 C 257.959 139.200,258.403 139.695,259.000 140.300 M261.900 143.400 C 262.553 144.060,263.132 144.600,263.187 144.600 C 263.242 144.600,262.753 144.060,262.100 143.400 C 261.447 142.740,260.868 142.200,260.813 142.200 C 260.758 142.200,261.247 142.740,261.900 143.400 M131.152 150.750 C 130.075 152.249,129.511 153.127,129.835 152.800 C 130.233 152.399,132.045 149.800,131.927 149.800 C 131.876 149.800,131.527 150.228,131.152 150.750 M129.276 153.450 C 128.588 154.618,128.543 154.718,128.894 154.300 C 129.300 153.816,129.650 153.200,129.519 153.200 C 129.466 153.200,129.357 153.313,129.276 153.450 M127.153 156.850 C 126.722 157.511,126.123 158.733,126.344 158.500 C 126.605 158.225,127.637 156.400,127.531 156.400 C 127.484 156.400,127.314 156.603,127.153 156.850 M125.600 159.600 C 125.376 160.040,125.237 160.400,125.292 160.400 C 125.347 160.400,125.576 160.040,125.800 159.600 C 126.024 159.160,126.163 158.800,126.108 158.800 C 126.053 158.800,125.824 159.160,125.600 159.600 M283.446 204.800 C 283.446 205.185,283.488 205.343,283.538 205.150 C 283.588 204.957,283.588 204.643,283.538 204.450 C 283.488 204.258,283.446 204.415,283.446 204.800 M139.996 259.050 C 141.149 260.233,142.117 261.200,142.146 261.200 C 142.291 261.200,142.047 260.944,140.050 258.996 L 137.900 256.900 139.996 259.050 M258.896 259.250 L 256.900 261.300 258.950 259.304 C 260.078 258.206,261.000 257.283,261.000 257.254 C 261.000 257.109,260.750 257.346,258.896 259.250 M194.952 283.741 C 195.201 283.789,195.561 283.787,195.752 283.737 C 195.944 283.687,195.740 283.648,195.300 283.650 C 194.860 283.653,194.704 283.694,194.952 283.741 M203.552 283.741 C 203.801 283.789,204.161 283.787,204.352 283.737 C 204.544 283.687,204.340 283.648,203.900 283.650 C 203.460 283.653,203.304 283.694,203.552 283.741 " stroke="none" fill="#b4e894" fill-rule="evenodd"></path></g></svg>